<svg xmlns="http://www.w3.org/2000/svg" width="40" height="40" viewBox="0 0 40 40"><g fill="none" stroke="#e9204f" stroke-width="2"><circle cx="20" cy="20" r="20" stroke="none"/><circle cx="20" cy="20" r="19" fill="none"/></g><g><path fill="#fff" d="M18,6a12.059,12.059,0,0,0-1.793,23.974V21.258H13.238v-3.17h2.969V15.978c0-3.493,1.693-5.026,4.581-5.026a16.554,16.554,0,0,1,2.461.151v2.767h-1.97c-1.226,0-1.654,1.168-1.654,2.485v1.734h3.593l-.488,3.17H19.625V30A12.059,12.059,0,0,0,18,6Zm0,0" transform="translate(8 8.042) translate(-6 -6)"/></g></svg>
