<svg xmlns="http://www.w3.org/2000/svg" width="40" height="40" viewBox="0 0 40 40"><g fill="none" stroke="#e9204f" stroke-width="2"><circle cx="20" cy="20" r="20" stroke="none"/><circle cx="20" cy="20" r="19" fill="none"/></g><g transform="translate(4 4)"><path d="M12.239,28a1.072,1.072,0,0,0,.631-.983V24.126a2.772,2.772,0,0,1,.021-.326l-.021.005H10.992a1.867,1.867,0,0,1-1.774-.964c-.365-.7-.522-1.873-1.461-2.515-.156-.107-.052-.268.261-.268a2.86,2.86,0,0,1,1.409,1.071A2.2,2.2,0,0,0,11.2,22.2a5.535,5.535,0,0,0,2.411-.3,2.485,2.485,0,0,1,1.867-1.309V20.58c-2.957-.1-4.846-1.106-5.726-2.663a30.733,30.733,0,0,0-4.528.378c-.031-.175-.056-.351-.078-.528A31.031,31.031,0,0,1,9.5,17.385a4.026,4.026,0,0,1-.152-.455,32.812,32.812,0,0,0-4.272.052c-.01-.178-.024-.354-.026-.534a33.013,33.013,0,0,1,4.183-.06,5.328,5.328,0,0,1-.068-.826,4.688,4.688,0,0,1,.888-2.676c-.261-.911-.627-2.837.1-3.533a4.285,4.285,0,0,1,2.87,1.124A7.562,7.562,0,0,1,16,9.888a7.14,7.14,0,0,1,2.922.589,4.293,4.293,0,0,1,2.87-1.124c.783.75.366,2.676.1,3.533a4.183,4.183,0,0,1,.835,2.676,5.375,5.375,0,0,1-.058.755,33.553,33.553,0,0,1,4.281.054c0,.18-.017.357-.027.534a33.059,33.059,0,0,0-4.361-.047,4.762,4.762,0,0,1-.169.525,31.659,31.659,0,0,1,4.459.368c-.022.178-.048.354-.078.529a31.055,31.055,0,0,0-4.632-.366c-.869,1.541-2.724,2.546-5.623,2.663v.017c1.356,0,2.609,2.088,2.609,3.533v2.891a1.072,1.072,0,0,0,.631.983A12.305,12.305,0,0,0,28,16.312,12.172,12.172,0,0,0,16,4,12.172,12.172,0,0,0,4,16.312,12.305,12.305,0,0,0,12.239,28Zm0,0" fill="#fff"/></g></svg>