<svg xmlns="http://www.w3.org/2000/svg" width="40" height="40" viewBox="0 0 40 40"><g fill="none" stroke="#e9204f" stroke-width="2"><circle cx="20" cy="20" r="20" stroke="none"/><circle cx="20" cy="20" r="19" fill="none"/></g><g><path fill="#fff" d="M13.091,6A7.1,7.1,0,0,0,6,13.091v9.818A7.1,7.1,0,0,0,13.091,30h9.818A7.1,7.1,0,0,0,30,22.909V13.091A7.1,7.1,0,0,0,22.909,6Zm11.455,4.364a1.091,1.091,0,1,1-1.091,1.091A1.094,1.094,0,0,1,24.545,10.364ZM18,12a6,6,0,1,1-6,6A6,6,0,0,1,18,12Zm0,1.091A4.909,4.909,0,1,0,22.909,18,4.916,4.916,0,0,0,18,13.091Zm0,0" transform="translate(-36 13) translate(38 -11)"/></g></svg>
