<svg xmlns="http://www.w3.org/2000/svg" width="40" height="40" viewBox="0 0 40 40"><g fill="none" stroke="#e9204f" stroke-width="2"><circle cx="20" cy="20" r="20" stroke="none"/><circle cx="20" cy="20" r="19" fill="none"/></g><g transform="translate(8.117 -0.841)"><path d="M23.883,13.473a10.089,10.089,0,0,1-2.83.753,4.817,4.817,0,0,0,2.166-2.641,10.076,10.076,0,0,1-3.127,1.157A4.984,4.984,0,0,0,16.5,11.234a4.851,4.851,0,0,0-4.925,4.775A4.652,4.652,0,0,0,11.7,17.1a14.13,14.13,0,0,1-10.149-4.99,4.648,4.648,0,0,0-.666,2.4,4.74,4.74,0,0,0,2.19,3.976,5.036,5.036,0,0,1-2.231-.6v.06A4.821,4.821,0,0,0,4.795,22.63a5.07,5.07,0,0,1-1.3.167,4.886,4.886,0,0,1-.928-.087,4.918,4.918,0,0,0,4.6,3.318,10.067,10.067,0,0,1-6.115,2.043A9.98,9.98,0,0,1-.117,28,14.227,14.227,0,0,0,7.43,30.15,13.694,13.694,0,0,0,21.44,16.564c0-.207-.006-.415-.013-.619A9.847,9.847,0,0,0,23.883,13.473Zm0,0" fill="#fff"/></g></svg>